<svg xmlns="http://www.w3.org/2000/svg" width="900" height="420" viewBox="0 0 900 420">
<rect x="0" y="0" width="100%" height="100%" fill="#ffffff"/>
<line x1="70" y1="70" x2="70" y2="350" stroke="#333" stroke-width="2"/>
<line x1="70" y1="350" x2="830" y2="350" stroke="#333" stroke-width="2"/>
<line x1="70" y1="350.0" x2="830" y2="350.0" stroke="#ccc" stroke-width="1" stroke-dasharray="4 4"/>
<text x="60" y="355.0" text-anchor="end" font-size="14" fill="#555">0.00</text>
<line x1="70" y1="280.0" x2="830" y2="280.0" stroke="#ccc" stroke-width="1" stroke-dasharray="4 4"/>
<text x="60" y="285.0" text-anchor="end" font-size="14" fill="#555">0.25</text>
<line x1="70" y1="210.0" x2="830" y2="210.0" stroke="#ccc" stroke-width="1" stroke-dasharray="4 4"/>
<text x="60" y="215.0" text-anchor="end" font-size="14" fill="#555">0.50</text>
<line x1="70" y1="140.0" x2="830" y2="140.0" stroke="#ccc" stroke-width="1" stroke-dasharray="4 4"/>
<text x="60" y="145.0" text-anchor="end" font-size="14" fill="#555">0.75</text>
<line x1="70" y1="70.0" x2="830" y2="70.0" stroke="#ccc" stroke-width="1" stroke-dasharray="4 4"/>
<text x="60" y="75.0" text-anchor="end" font-size="14" fill="#555">1.00</text>
<rect x="96.6" y="280.0" width="53.199999999999996" height="70.0" fill="#4e79a7" opacity="0.85"><title>targeted: 0.25</title></rect>
<rect x="149.8" y="280.0" width="53.199999999999996" height="70.0" fill="#f28e2b" opacity="0.85"><title>global_override: 0.25</title></rect>
<text x="146.0" y="380" text-anchor="middle" font-size="14" fill="#333">Baseline</text>
<rect x="248.6" y="87.5" width="53.199999999999996" height="262.5" fill="#4e79a7" opacity="0.85"><title>targeted: 0.94</title></rect>
<rect x="301.8" y="280.0" width="53.199999999999996" height="70.0" fill="#f28e2b" opacity="0.85"><title>global_override: 0.25</title></rect>
<text x="298.0" y="380" text-anchor="middle" font-size="14" fill="#333">Ranked Values</text>
<rect x="400.6" y="87.5" width="53.199999999999996" height="262.5" fill="#4e79a7" opacity="0.85"><title>targeted: 0.94</title></rect>
<rect x="453.8" y="87.5" width="53.199999999999996" height="262.5" fill="#f28e2b" opacity="0.85"><title>global_override: 0.94</title></rect>
<text x="450.0" y="380" text-anchor="middle" font-size="14" fill="#333">Safety Append</text>
<rect x="552.6" y="116.66666666666669" width="53.199999999999996" height="233.33333333333331" fill="#4e79a7" opacity="0.85"><title>targeted: 0.83</title></rect>
<rect x="605.8" y="280.0" width="53.199999999999996" height="70.0" fill="#f28e2b" opacity="0.85"><title>global_override: 0.25</title></rect>
<text x="602.0" y="380" text-anchor="middle" font-size="14" fill="#333">Self Critique</text>
<rect x="704.6" y="70.0" width="53.199999999999996" height="280.0" fill="#4e79a7" opacity="0.85"><title>targeted: 1.00</title></rect>
<rect x="757.8" y="245.0" width="53.199999999999996" height="105.0" fill="#f28e2b" opacity="0.85"><title>global_override: 0.38</title></rect>
<text x="754.0" y="380" text-anchor="middle" font-size="14" fill="#333">Value Checklist</text>
<rect x="670" y="80" width="18" height="18" fill="#4e79a7" opacity="0.85"/>
<text x="695" y="94" font-size="14" fill="#333">Targeted</text>
<rect x="670" y="104" width="18" height="18" fill="#f28e2b" opacity="0.85"/>
<text x="695" y="118" font-size="14" fill="#333">Global Override</text>
<text x="450.0" y="40" text-anchor="middle" font-size="18" fill="#222">Prompt Strategy Performance Across Configurations</text>
<text x="20" y="60" text-anchor="middle" font-size="16" fill="#222" transform="rotate(-90 20,60)">Average Alignment Score</text>
</svg>